<?xml version="1.0" encoding="utf-8"?>
<!-- Generator: Adobe Illustrator 23.0.1, SVG Export Plug-In . SVG Version: 6.00 Build 0)  -->
<svg version="1.1"
	 id="svg8" inkscape:version="1.0.2-2 (e86c870879, 2021-01-15)" sodipodi:docname="Logotipo_de_Televisa.svg" xmlns:cc="http://creativecommons.org/ns#" xmlns:dc="http://purl.org/dc/elements/1.1/" xmlns:inkscape="http://www.inkscape.org/namespaces/inkscape" xmlns:rdf="http://www.w3.org/1999/02/22-rdf-syntax-ns#" xmlns:sodipodi="http://sodipodi.sourceforge.net/DTD/sodipodi-0.dtd" xmlns:svg="http://www.w3.org/2000/svg"
	 xmlns="http://www.w3.org/2000/svg" xmlns:xlink="http://www.w3.org/1999/xlink" x="0px" y="0px" width="224.6px" height="100px"
	 viewBox="0 0 224.6 100" enable-background="new 0 0 224.6 100" xml:space="preserve">
<path d="M47.3,70.3c-2.1,1.7-4.6,2.6-7,2.4c-2.8-0.3-4.6-1.5-7.2-4.8L19.5,51.1l-6.1,5l14.9,18.3c3.1,3.8,6.7,5.9,10.8,6.2
	c4.7,0.4,8.8-1,13-4.3c4.1-3.3,6.3-7.1,6.9-11.8c0.4-4.1-0.8-8-3.9-11.8L40.2,34.3l-6,4.9L47.8,56c2.7,3.3,3.4,5.2,3.2,8.1
	C50.8,66.3,49.4,68.6,47.3,70.3 M188.6,88l11.3-39.3c0.4-1.4,0.6-2.8-1.3-4.2l-1.5-1.2c-1.8-1.4-3.2-0.9-4.4-0.1l-34.2,22.2l7.2,4.1
	l24.7-16l-3.9,13.5l-3.2-2.5l-6.5,4.3l7.6,5.8l-2.2,7.6L188.6,88z M112.3,6.1c42.3,0,80.6,17.4,107.9,45.5l4.4-4.3
	C196.1,18.1,156.3,0,112.3,0C68.3,0,28.5,18.1,0,47.3l4.3,4.3C31.7,23.5,70,6.1,112.3,6.1 M112.3,70.5c25.9,0,49.2,11.4,65.1,29.5
	l4.6-4c-17-19.3-41.9-31.6-69.6-31.6c-27.7,0-52.6,12.2-69.6,31.6l4.6,4C63.1,81.9,86.4,70.5,112.3,70.5 M145.5,27.2l14,3.7l1.8-7.1
	L147,20.1c-6.7-1.7-12.9-0.1-15.1,8.1l-6.4,24.4c-0.4,1.8,0.5,3.1,2.1,3.6l4.7,1.2l4.2-15.8l17.4,4.6l1.8-7l-17.4-4.6l1-3.7
	C140.2,27,141.9,26.3,145.5,27.2 M97.6,15.8l-24.1,4.9c-1.7,0.3-2.6,1.7-2.3,3.5l5.1,24.7c1.7,8.4,7.8,10.4,14.6,9l14.7-3l-1.5-7.2
	l-14.2,2.9c-3.7,0.8-5.3,0-6.2-4.1L83,42.9l17.7-3.6l-1.5-7.1l-17.7,3.6L79.8,27l19.3-4L97.6,15.8z"/>
</svg>
